<svg width="134" height="37" viewBox="0 0 134 37" fill="none" xmlns="http://www.w3.org/2000/svg">
<path d="M34.9268 27.6921V12.1386C34.9292 11.3987 35.2261 10.69 35.7523 10.1677C36.2786 9.64534 36.9914 9.35205 37.7345 9.35205H44.548C48.1239 9.35205 50.136 11.4465 50.136 14.0509C50.1511 14.9952 49.8502 15.9177 49.2805 16.6729C48.7109 17.4281 47.9049 17.973 46.9899 18.2216C47.9993 18.4626 48.898 19.0345 49.5416 19.8455C50.1851 20.6564 50.5362 21.6592 50.5384 22.6928C50.5384 25.5522 48.4989 27.6921 44.7766 27.6921H34.9268ZM46.3862 14.6155C46.3862 13.3497 45.4717 12.5119 44.0084 12.5119H38.6124V16.719H44.0084C44.307 16.7552 44.6099 16.7277 44.897 16.6384C45.1841 16.5492 45.4489 16.4001 45.6737 16.2012C45.8986 16.0023 46.0784 15.758 46.2012 15.4846C46.3241 15.2113 46.3871 14.915 46.3862 14.6155V14.6155ZM46.7887 22.2193C46.782 21.8905 46.7063 21.5668 46.5666 21.2689C46.4268 20.971 46.2261 20.7055 45.9772 20.4894C45.7283 20.2733 45.4368 20.1115 45.1213 20.0142C44.8059 19.9169 44.4735 19.8863 44.1456 19.9245H38.6124V24.4776H44.1456C45.746 24.5231 46.7887 23.658 46.7887 22.2193Z" fill="#E5653C"/>
<path d="M54.1235 25.8526V11.1823C54.1235 10.6993 54.3162 10.2361 54.6593 9.89452C55.0023 9.55296 55.4675 9.36108 55.9527 9.36108C56.4378 9.36108 56.903 9.55296 57.2461 9.89452C57.5891 10.2361 57.7818 10.6993 57.7818 11.1823V25.8526C57.7818 26.3356 57.5891 26.7989 57.2461 27.1404C56.903 27.482 56.4378 27.6738 55.9527 27.6738C55.4675 27.6738 55.0023 27.482 54.6593 27.1404C54.3162 26.7989 54.1235 26.3356 54.1235 25.8526Z" fill="#E5653C"/>
<path d="M66.315 26.1077V12.512H62.4463C62.237 12.5132 62.0296 12.473 61.8359 12.3938C61.6423 12.3146 61.4664 12.1979 61.3184 12.0506C61.1704 11.9032 61.0532 11.728 60.9737 11.5353C60.8941 11.3425 60.8538 11.1359 60.855 10.9275C60.855 10.7198 60.8962 10.5142 60.9763 10.3225C61.0564 10.1307 61.1738 9.95668 61.3216 9.81027C61.4695 9.66386 61.645 9.54801 61.8381 9.46937C62.0311 9.39074 62.2378 9.35088 62.4463 9.35208H73.8052C74.0133 9.35087 74.2196 9.39079 74.4121 9.46953C74.6047 9.54828 74.7796 9.66427 74.9267 9.8108C75.0739 9.95733 75.1904 10.1315 75.2695 10.3232C75.3485 10.5148 75.3886 10.7202 75.3874 10.9275V10.9275C75.3886 11.1351 75.3486 11.341 75.2696 11.5331C75.1907 11.7253 75.0743 11.9001 74.9273 12.0473C74.7802 12.1946 74.6054 12.3114 74.4128 12.3912C74.2203 12.4709 74.0138 12.512 73.8052 12.512H69.9641V26.1077C69.9641 26.5279 69.7964 26.9309 69.498 27.2281C69.1995 27.5252 68.7948 27.6922 68.3727 27.6922H67.9063C67.6973 27.6922 67.4904 27.6512 67.2973 27.5716C67.1042 27.4919 66.9288 27.3752 66.781 27.2281C66.6333 27.0809 66.5161 26.9063 66.4361 26.714C66.3561 26.5218 66.315 26.3157 66.315 26.1077Z" fill="#E5653C"/>
<path d="M78.4419 25.3882V9.35205H88.054C91.6391 9.35205 93.6419 11.4465 93.6419 14.0509C93.6571 14.9952 93.3561 15.9177 92.7865 16.6729C92.2168 17.4281 91.4109 17.973 90.4958 18.2216C91.5086 18.4591 92.4115 19.0295 93.0586 19.8408C93.7058 20.652 94.0595 21.6568 94.0626 22.6928C94.0626 25.5522 92.0232 27.6921 88.3009 27.6921H80.774C80.4686 27.6945 80.1658 27.6367 79.8829 27.522C79.6001 27.4073 79.3429 27.238 79.1261 27.0238C78.9093 26.8096 78.7372 26.5548 78.6198 26.2741C78.5023 25.9934 78.4419 25.6923 78.4419 25.3882ZM89.8922 14.6155C89.8922 13.3497 88.9777 12.5119 87.5144 12.5119H82.1733V16.719H87.5601C87.8551 16.7483 88.153 16.7157 88.4346 16.6233C88.7162 16.5309 88.9752 16.3807 89.195 16.1825C89.4147 15.9843 89.5903 15.7425 89.7104 15.4726C89.8305 15.2027 89.8924 14.9107 89.8922 14.6155V14.6155ZM90.2946 22.2193C90.2878 21.8914 90.2124 21.5685 90.0732 21.2713C89.934 20.9741 89.7341 20.7091 89.4862 20.4931C89.2384 20.2772 88.948 20.1151 88.6337 20.0172C88.3194 19.9192 87.988 19.8877 87.6607 19.9245H82.1733V24.4776H87.6607C89.2612 24.5231 90.2946 23.658 90.2946 22.2193V22.2193Z" fill="#E5653C"/>
<path d="M97.6299 20.489V11.1823C97.6299 10.6993 97.8226 10.2361 98.1656 9.89452C98.5086 9.55296 98.9739 9.36108 99.459 9.36108C99.9441 9.36108 100.409 9.55296 100.752 9.89452C101.095 10.2361 101.288 10.6993 101.288 11.1823V20.1885C101.288 23.0205 102.962 24.8873 105.98 24.8873C108.998 24.8873 110.662 23.0661 110.662 20.1885V11.1823C110.662 10.6993 110.855 10.2361 111.198 9.89452C111.541 9.55296 112.006 9.36108 112.492 9.36108C112.977 9.36108 113.442 9.55296 113.785 9.89452C114.128 10.2361 114.321 10.6993 114.321 11.1823V20.489C114.321 25.0421 111.577 28.0928 105.952 28.0928C100.328 28.0928 97.6299 25.0239 97.6299 20.489Z" fill="#E5653C"/>
<path d="M124.244 26.0166V20.052L118.528 11.9929C118.35 11.7422 118.245 11.4479 118.224 11.142C118.203 10.836 118.267 10.5302 118.408 10.2578C118.55 9.98547 118.764 9.75698 119.027 9.59726C119.29 9.43755 119.591 9.35274 119.899 9.35208H119.954C120.228 9.35254 120.497 9.41907 120.739 9.54595C120.981 9.67283 121.189 9.85629 121.344 10.0806L126.073 16.9558L130.7 10.0897C130.854 9.8613 131.063 9.67442 131.307 9.54571C131.551 9.41701 131.823 9.35048 132.1 9.35208C132.408 9.35274 132.71 9.43755 132.972 9.59726C133.235 9.75698 133.449 9.98547 133.591 10.2578C133.732 10.5302 133.796 10.836 133.775 11.142C133.754 11.4479 133.649 11.7422 133.472 11.9929L127.838 20.0611V26.0166C127.838 26.461 127.661 26.8872 127.345 27.2014C127.029 27.5156 126.601 27.6922 126.155 27.6922H125.908C125.465 27.6874 125.042 27.5087 124.73 27.195C124.418 26.8813 124.244 26.4579 124.244 26.0166Z" fill="#E5653C"/>
<path d="M25.7358 12.8126C25.7358 9.41446 24.3801 6.15553 21.9669 3.75271C19.5537 1.34989 16.2807 0 12.8679 0C9.45513 0 6.18213 1.34989 3.76893 3.75271C1.35572 6.15553 7.1919e-08 9.41446 0 12.8126V24.1954C0.00121084 26.1258 0.440458 28.0309 1.28493 29.7685C2.1294 31.5061 3.35726 33.0312 4.8768 34.23C6.39634 35.4287 8.16827 36.2701 10.0602 36.6913C11.9522 37.1125 13.9153 37.1026 15.8029 36.6623C17.6904 36.222 19.4537 35.3627 20.961 34.1487C22.4682 32.9346 23.6805 31.3972 24.5072 29.6512C25.3339 27.9051 25.7537 25.9957 25.7352 24.0654C25.7168 22.1352 25.2605 20.234 24.4006 18.504C25.2792 16.7343 25.7361 14.7867 25.7358 12.8126ZM12.8679 11.3738C10.9663 11.381 9.14539 12.1401 7.80587 13.4841C6.46634 14.8282 5.71789 16.647 5.72517 18.5404C5.73245 20.4339 6.49485 22.2469 7.84467 23.5807C9.19448 24.9145 11.0211 25.6597 12.9228 25.6524C14.7219 25.6512 16.5003 25.2708 18.1412 24.5362C19.7821 23.8017 21.2483 22.7297 22.4434 21.3907C22.8507 22.7592 22.9573 24.1991 22.756 25.6123C22.5547 27.0255 22.0502 28.379 21.2768 29.5808C20.5034 30.7826 19.4792 31.8046 18.2738 32.5772C17.0685 33.3498 15.7102 33.855 14.2913 34.0584C12.8724 34.2619 11.4261 34.1588 10.0508 33.7561C8.67549 33.3535 7.40334 32.6608 6.32082 31.7251C5.2383 30.7894 4.37077 29.6326 3.7772 28.3333C3.18364 27.0341 2.87793 25.6228 2.88088 24.1954V12.8126C2.88088 10.1752 3.93308 7.64591 5.80601 5.78104C7.67895 3.91616 10.2192 2.86848 12.8679 2.86848C15.5166 2.86848 18.0569 3.91616 19.9298 5.78104C21.8028 7.64591 22.855 10.1752 22.855 12.8126C22.8568 13.7685 22.7181 14.7196 22.4434 15.6355C21.2399 14.2923 19.7644 13.2181 18.114 12.4836C16.4636 11.749 14.6757 11.3708 12.8679 11.3738V11.3738ZM21.099 18.504C20.1862 19.8128 18.9696 20.8829 17.5525 21.6233C16.1354 22.3637 14.5597 22.7525 12.9594 22.7566C11.8596 22.706 10.8218 22.2353 10.0615 21.4425C9.30123 20.6497 8.87701 19.5956 8.87701 18.4994C8.87701 17.4033 9.30123 16.3492 10.0615 15.5564C10.8218 14.7636 11.8596 14.2929 12.9594 14.2423C14.5519 14.2593 16.1173 14.6549 17.5252 15.3962C18.9331 16.1375 20.1427 17.203 21.0533 18.504H21.099Z" fill="url(#paint0_linear_187_16201)"/>
<defs>
<linearGradient id="paint0_linear_187_16201" x1="5.34105" y1="2.41317" x2="20.4156" y2="34.9178" gradientUnits="userSpaceOnUse">
<stop offset="0.08" stop-color="#E5653C"/>
<stop offset="1" stop-color="#E2A432"/>
</linearGradient>
</defs>
</svg>
